<svg width="19" height="19" viewBox="0 0 19 19" fill="none" xmlns="http://www.w3.org/2000/svg">
<path d="M12.9404 8.25C12.9404 8.44891 12.8614 8.63968 12.7208 8.78033C12.5801 8.92098 12.3893 9 12.1904 9H6.19043C5.99152 9 5.80075 8.92098 5.6601 8.78033C5.51945 8.63968 5.44043 8.44891 5.44043 8.25C5.44043 8.05109 5.51945 7.86032 5.6601 7.71967C5.80075 7.57902 5.99152 7.5 6.19043 7.5H12.1904C12.3893 7.5 12.5801 7.57902 12.7208 7.71967C12.8614 7.86032 12.9404 8.05109 12.9404 8.25ZM12.1904 10.5H6.19043C5.99152 10.5 5.80075 10.579 5.6601 10.7197C5.51945 10.8603 5.44043 11.0511 5.44043 11.25C5.44043 11.4489 5.51945 11.6397 5.6601 11.7803C5.80075 11.921 5.99152 12 6.19043 12H12.1904C12.3893 12 12.5801 11.921 12.7208 11.7803C12.8614 11.6397 12.9404 11.4489 12.9404 11.25C12.9404 11.0511 12.8614 10.8603 12.7208 10.7197C12.5801 10.579 12.3893 10.5 12.1904 10.5ZM18.9404 9.375C18.9377 11.8606 17.9491 14.2435 16.1915 16.0011C14.434 17.7587 12.051 18.7473 9.56543 18.75H1.65949C1.27002 18.7495 0.896651 18.5946 0.621256 18.3192C0.345861 18.0438 0.190926 17.6704 0.19043 17.2809V9.375C0.19043 6.8886 1.17815 4.50403 2.9363 2.74587C4.69446 0.98772 7.07903 0 9.56543 0C12.0518 0 14.4364 0.98772 16.1946 2.74587C17.9527 4.50403 18.9404 6.8886 18.9404 9.375ZM17.4404 9.375C17.4404 7.28642 16.6107 5.28338 15.1339 3.80653C13.657 2.32969 11.654 1.5 9.56543 1.5C7.47685 1.5 5.47381 2.32969 3.99696 3.80653C2.52011 5.28338 1.69043 7.28642 1.69043 9.375V17.25H9.56543C11.6533 17.2478 13.6551 16.4174 15.1314 14.941C16.6078 13.4646 17.4382 11.4629 17.4404 9.375Z" fill="white"/>
</svg>
