<svg width="18" height="21" viewBox="0 0 18 21" fill="none" xmlns="http://www.w3.org/2000/svg">
<path d="M9.17041 4.5C8.42873 4.5 7.70371 4.71993 7.08702 5.13199C6.47034 5.54404 5.98969 6.12971 5.70586 6.81494C5.42203 7.50016 5.34777 8.25416 5.49247 8.98159C5.63716 9.70902 5.99431 10.3772 6.51876 10.9017C7.04321 11.4261 7.71139 11.7833 8.43882 11.9279C9.16625 12.0726 9.92025 11.9984 10.6055 11.7145C11.2907 11.4307 11.8764 10.9501 12.2884 10.3334C12.7005 9.7167 12.9204 8.99168 12.9204 8.25C12.9204 7.25544 12.5253 6.30161 11.8221 5.59835C11.1188 4.89509 10.165 4.5 9.17041 4.5ZM9.17041 10.5C8.7254 10.5 8.29039 10.368 7.92038 10.1208C7.55037 9.87357 7.26198 9.52217 7.09168 9.11104C6.92138 8.6999 6.87683 8.2475 6.96364 7.81105C7.05046 7.37459 7.26475 6.97368 7.57942 6.65901C7.89409 6.34434 8.295 6.13005 8.73146 6.04323C9.16791 5.95642 9.62031 6.00097 10.0314 6.17127C10.4426 6.34157 10.794 6.62996 11.0412 6.99997C11.2885 7.36998 11.4204 7.80499 11.4204 8.25C11.4204 8.84674 11.1834 9.41903 10.7614 9.84099C10.3394 10.2629 9.76715 10.5 9.17041 10.5ZM9.17041 0C6.98314 0.00248131 4.88616 0.872472 3.33952 2.41911C1.79288 3.96575 0.922891 6.06273 0.92041 8.25C0.92041 11.1938 2.28072 14.3138 4.85791 17.2734C6.01593 18.6108 7.31927 19.8151 8.74385 20.8641C8.86995 20.9524 9.02019 20.9998 9.17416 20.9998C9.32813 20.9998 9.47837 20.9524 9.60447 20.8641C11.0264 19.8147 12.3272 18.6104 13.4829 17.2734C16.0563 14.3138 17.4204 11.1938 17.4204 8.25C17.4179 6.06273 16.5479 3.96575 15.0013 2.41911C13.4547 0.872472 11.3577 0.00248131 9.17041 0ZM9.17041 19.3125C7.62072 18.0938 2.42041 13.6172 2.42041 8.25C2.42041 6.45979 3.13157 4.7429 4.39744 3.47703C5.66331 2.21116 7.3802 1.5 9.17041 1.5C10.9606 1.5 12.6775 2.21116 13.9434 3.47703C15.2093 4.7429 15.9204 6.45979 15.9204 8.25C15.9204 13.6153 10.7201 18.0938 9.17041 19.3125Z" fill="white"/>
</svg>
