<svg width="22" height="20" viewBox="0 0 22 20" fill="none" xmlns="http://www.w3.org/2000/svg">
<path d="M11.1703 1.50005C9.39031 1.50005 7.65025 2.02789 6.17021 3.01682C4.69016 4.00576 3.53661 5.41136 2.85542 7.0559C2.17423 8.70043 1.996 10.51 2.34327 12.2559C2.69054 14.0017 3.54771 15.6053 4.80638 16.864C6.06505 18.1227 7.6687 18.9799 9.41453 19.3271C11.1604 19.6744 12.97 19.4962 14.6145 18.815C16.259 18.1338 17.6646 16.9802 18.6536 15.5002C19.6425 14.0201 20.1703 12.2801 20.1703 10.5C20.1676 8.11394 19.2185 5.82634 17.5313 4.1391C15.8441 2.45187 13.5564 1.50278 11.1703 1.50005ZM11.1703 18C9.68698 18 8.23693 17.5602 7.00356 16.7361C5.77019 15.912 4.8089 14.7406 4.24124 13.3702C3.67359 11.9997 3.52506 10.4917 3.81445 9.03687C4.10384 7.58202 4.81814 6.24564 5.86704 5.19675C6.91593 4.14786 8.2523 3.43355 9.70716 3.14416C11.162 2.85477 12.67 3.0033 14.0405 3.57095C15.4109 4.13861 16.5823 5.09991 17.4064 6.33327C18.2305 7.56664 18.6703 9.01669 18.6703 10.5C18.6681 12.4885 17.8772 14.3948 16.4712 15.8009C15.0651 17.2069 13.1588 17.9978 11.1703 18ZM4.95096 1.28068L1.95096 4.28068C1.88128 4.35036 1.79856 4.40563 1.70751 4.44335C1.61647 4.48106 1.51889 4.50047 1.42034 4.50047C1.32179 4.50047 1.22421 4.48106 1.13317 4.44335C1.04212 4.40563 0.959397 4.35036 0.889714 4.28068C0.748983 4.13995 0.669922 3.94907 0.669922 3.75005C0.669922 3.55103 0.748983 3.36016 0.889714 3.21943L3.88971 0.219426C3.9594 0.149743 4.04212 0.0944678 4.13317 0.0567558C4.22421 0.0190438 4.32179 -0.000366211 4.42034 -0.000366211C4.51889 -0.000366211 4.61647 0.0190438 4.70751 0.0567558C4.79856 0.0944678 4.88128 0.149743 4.95096 0.219426C5.02065 0.289109 5.07592 0.371834 5.11363 0.462879C5.15135 0.553923 5.17076 0.651505 5.17076 0.750051C5.17076 0.848597 5.15135 0.946178 5.11363 1.03722C5.07592 1.12827 5.02065 1.21099 4.95096 1.28068ZM21.451 4.28068C21.3813 4.35041 21.2986 4.40573 21.2075 4.44347C21.1165 4.48121 21.0189 4.50064 20.9203 4.50064C20.8218 4.50064 20.7242 4.48121 20.6331 4.44347C20.5421 4.40573 20.4594 4.35041 20.3897 4.28068L17.3897 1.28068C17.249 1.13995 17.1699 0.949074 17.1699 0.750051C17.1699 0.551028 17.249 0.360156 17.3897 0.219426C17.5304 0.0786954 17.7213 -0.000366207 17.9203 -0.000366211C18.1194 -0.000366215 18.3102 0.0786954 18.451 0.219426L21.451 3.21943C21.5207 3.28908 21.576 3.3718 21.6138 3.46285C21.6515 3.55389 21.6709 3.65149 21.6709 3.75005C21.6709 3.84861 21.6515 3.94621 21.6138 4.03726C21.576 4.1283 21.5207 4.21102 21.451 4.28068ZM16.4203 9.75005C16.6193 9.75005 16.81 9.82907 16.9507 9.96972C17.0913 10.1104 17.1703 10.3011 17.1703 10.5C17.1703 10.699 17.0913 10.8897 16.9507 11.0304C16.81 11.171 16.6193 11.25 16.4203 11.25H11.1703C10.9714 11.25 10.7807 11.171 10.64 11.0304C10.4994 10.8897 10.4203 10.699 10.4203 10.5V5.25005C10.4203 5.05114 10.4994 4.86037 10.64 4.71972C10.7807 4.57907 10.9714 4.50005 11.1703 4.50005C11.3693 4.50005 11.56 4.57907 11.7007 4.71972C11.8413 4.86037 11.9203 5.05114 11.9203 5.25005V9.75005H16.4203Z" fill="white"/>
</svg>
